<?xml version="1.0" encoding="UTF-8" standalone="no"?>
<!-- Uploaded to: SVG Repo, www.svgrepo.com, Generator: SVG Repo Mixer Tools -->

<svg
   fill="#000000"
   height="16mm"
   width="62mm"
   version="1.1"
   id="Capa_1"
   viewBox="0 0 134.74191 34.772106"
   xml:space="preserve"
   sodipodi:docname="logo_black.svg"
   inkscape:version="1.1.2 (0a00cf5339, 2022-02-04)"
   xmlns:inkscape="http://www.inkscape.org/namespaces/inkscape"
   xmlns:sodipodi="http://sodipodi.sourceforge.net/DTD/sodipodi-0.dtd"
   xmlns="http://www.w3.org/2000/svg"
   xmlns:svg="http://www.w3.org/2000/svg"><defs
   id="defs1067" /><sodipodi:namedview
   id="namedview1065"
   pagecolor="#ffffff"
   bordercolor="#666666"
   borderopacity="1.0"
   inkscape:pageshadow="2"
   inkscape:pageopacity="0.0"
   inkscape:pagecheckerboard="true"
   showgrid="false"
   inkscape:zoom="2.9839906"
   inkscape:cx="85.623594"
   inkscape:cy="93.666514"
   inkscape:window-width="1850"
   inkscape:window-height="1016"
   inkscape:window-x="70"
   inkscape:window-y="27"
   inkscape:window-maximized="1"
   inkscape:current-layer="Capa_1"
   units="mm"
   fit-margin-top="0"
   fit-margin-left="0"
   fit-margin-right="0"
   fit-margin-bottom="0"
   inkscape:document-units="mm" />
<g
   style="fill:#000000;fill-opacity:1;stroke:none;stroke-width:19.1384;stroke-miterlimit:4;stroke-dasharray:none"
   id="g1197"
   transform="matrix(0.05107597,0,0,0.05107597,68.47601,13.274938)"><g
     id="g1187"
     style="fill:#000000;fill-opacity:1;stroke:none;stroke-width:19.1384;stroke-miterlimit:4;stroke-dasharray:none">
	<g
   id="g1185"
   style="fill:#000000;fill-opacity:1;stroke:none;stroke-width:19.1384;stroke-miterlimit:4;stroke-dasharray:none">
		<path
   d="M 344.381,143.771 C 254.765,56.017 102.37,103.776 79.825,227.7 c -31.849,4.598 -59.138,25.445 -72.018,55.076 -0.016,0.035 -0.032,0.07 -0.047,0.107 -26.687,61.602 18.784,130.232 85.51,130.232 H 375.537 C 450.783,413.115 512,351.899 512,276.653 512,189.241 430.314,123.682 344.381,143.771 Z M 375.537,381.12 H 93.271 c -69.246,0 -84.534,-98.263 -18.714,-119.456 14.753,-4.65 43.01,-7.348 74.38,21.892 6.464,6.024 16.586,5.667 22.61,-0.794 6.024,-6.464 5.668,-16.586 -0.794,-22.61 -17.93,-16.712 -38.071,-27.33 -58.484,-31.453 22.034,-99.077 147.374,-131.851 215.247,-56.305 4.189,4.661 10.714,6.451 16.693,4.57 67.272,-21.117 135.795,29.374 135.795,99.69 10e-4,57.602 -46.863,104.466 -104.467,104.466 z"
   id="path1183"
   style="fill:#000000;fill-opacity:1;stroke:none;stroke-width:19.1384;stroke-miterlimit:4;stroke-dasharray:none" />
	</g>
</g></g><g
   id="g1062"
   transform="matrix(0,-0.07562453,0.07562453,0,37.269668,34.787776)"
   style="fill:#000000;fill-opacity:1;stroke-width:12.9318;stroke-miterlimit:4;stroke-dasharray:none">
	<path
   d="M 457.078,239.227 356.926,139.076 c -2.864,-2.864 -7.174,-3.719 -10.915,-2.16 l -45.983,19.145 c -0.028,0.011 -0.056,0.023 -0.084,0.034 l -0.032,0.014 c -0.048,0.02 -0.092,0.046 -0.139,0.066 -0.246,0.106 -0.491,0.219 -0.73,0.347 -0.058,0.03 -0.112,0.067 -0.168,0.1 -0.226,0.126 -0.451,0.256 -0.668,0.401 -0.086,0.058 -0.165,0.124 -0.25,0.184 -0.18,0.129 -0.362,0.255 -0.536,0.397 -0.256,0.209 -0.502,0.431 -0.736,0.665 L 254.136,200.818 112.638,59.318 C 104.991,51.672 94.346,48.961 83.44,51.885 80.581,52.651 77.772,53.8 75.068,55.24 72.523,49.594 69.124,42.552 65.116,35.459 51.637,11.601 38.575,0.003 25.182,0.003 20.781,0.003 14.188,1.35 7.77,7.767 c -8.181,8.182 -8.452,16.647 -7.237,22.31 2.59,12.078 14.665,23.901 36.915,36.144 6.413,3.528 12.678,6.537 17.796,8.844 -1.441,2.704 -2.59,5.513 -3.356,8.372 -2.923,10.909 -0.213,21.552 7.433,29.198 l 26.02,26.02 c 0.032,0.032 0.064,0.064 0.096,0.097 0.019,0.018 0.037,0.036 0.055,0.054 l 52.157,52.157 c 0.007,0.007 0.013,0.015 0.02,0.021 0.003,0.004 0.007,0.007 0.011,0.01 l 63.14,63.141 -42.549,42.549 c -0.234,0.234 -0.455,0.479 -0.664,0.734 -0.156,0.19 -0.296,0.39 -0.437,0.588 -0.047,0.066 -0.099,0.129 -0.144,0.196 -0.156,0.232 -0.296,0.473 -0.43,0.715 -0.023,0.041 -0.049,0.08 -0.071,0.121 -0.133,0.248 -0.25,0.503 -0.361,0.759 -0.017,0.039 -0.038,0.075 -0.054,0.114 l -0.011,0.026 c -0.013,0.031 -0.026,0.062 -0.039,0.093 l -19.143,45.979 c -1.557,3.74 -0.704,8.05 2.161,10.915 L 239.23,457.075 c 1.914,1.914 4.473,2.929 7.073,2.929 1.328,0 2.667,-0.265 3.938,-0.809 l 45.518,-19.508 c 0.01,-0.004 0.019,-0.008 0.029,-0.012 l 0.157,-0.067 c 0.086,-0.037 0.167,-0.083 0.251,-0.122 0.187,-0.087 0.374,-0.172 0.557,-0.271 0.106,-0.058 0.208,-0.123 0.312,-0.185 0.172,-0.101 0.344,-0.199 0.51,-0.312 0.13,-0.087 0.252,-0.185 0.377,-0.277 0.132,-0.098 0.268,-0.19 0.396,-0.296 0.253,-0.208 0.496,-0.427 0.728,-0.658 l 30.144,-30.145 12.516,12.517 c 1.875,1.875 4.419,2.929 7.071,2.929 2.652,0 5.195,-1.054 7.071,-2.929 l 63.984,-63.984 c 1.875,-1.876 2.929,-4.419 2.929,-7.071 0,-2.652 -1.054,-5.196 -2.929,-7.071 l -12.516,-12.516 30.144,-30.145 c 0.232,-0.231 0.45,-0.476 0.658,-0.728 0.108,-0.131 0.202,-0.27 0.303,-0.404 0.091,-0.123 0.186,-0.242 0.271,-0.368 0.115,-0.172 0.217,-0.349 0.321,-0.525 0.058,-0.099 0.12,-0.194 0.174,-0.296 0.102,-0.188 0.19,-0.381 0.279,-0.573 0.037,-0.08 0.081,-0.156 0.115,-0.237 l 0.063,-0.147 c 0.006,-0.014 0.012,-0.027 0.018,-0.042 l 19.506,-45.514 c 1.61,-3.759 0.771,-8.12 -2.12,-11.011 z M 20.088,25.882 c -0.142,-0.661 -0.379,-1.77 1.825,-3.973 1.265,-1.266 2.365,-1.906 3.269,-1.906 3.042,0 11.188,5.289 22.418,25.112 1.035,1.826 2.028,3.657 2.975,5.464 C 35.306,42.489 21.581,32.844 20.088,25.882 Z m 59.579,78.814 -6.204,-6.204 c -1.66,-1.66 -3.7,-4.49 -2.256,-9.879 1.01,-3.771 3.455,-7.6 6.59,-10.744 0.042,-0.042 0.085,-0.081 0.126,-0.123 3.136,-3.111 6.943,-5.537 10.693,-6.542 1.288,-0.345 2.428,-0.491 3.442,-0.491 3.231,0 5.174,1.484 6.437,2.748 l 6.174,6.174 c -5.187,2.154 -10.257,5.553 -14.868,10.164 -4.449,4.449 -7.912,9.568 -10.134,14.897 z M 118.572,143.6 99.524,124.552 c -6.355,-6.449 0.104,-16.295 4.42,-20.611 3.655,-3.656 8.029,-6.169 11.999,-6.895 4.653,-0.849 7.175,1.036 8.668,2.53 0.019,0.018 0.037,0.036 0.055,0.054 l 6.473,6.473 c -8.161,11.135 -12.34,24.288 -12.567,37.497 z m 97.177,47.114 24.245,24.245 -24.245,24.245 c -4.559,-7.188 -7.013,-15.525 -7.013,-24.245 0,-8.72 2.453,-17.057 7.013,-24.245 z m -62.096,-12.032 -1.846,-1.847 c -15.268,-15.271 -17.35,-38.797 -6.273,-56.336 l 20.713,20.714 c -7.965,10.833 -12.356,23.809 -12.594,37.469 z m 35.111,35.11 -1.841,-1.841 -0.001,-0.001 c -8.575,-8.574 -13.297,-19.976 -13.297,-32.103 0,-8.719 2.453,-17.057 7.013,-24.245 l 20.721,20.722 c -7.965,10.833 -12.357,23.808 -12.595,37.468 z m 160.043,184.854 -5.445,-5.445 49.841,-49.841 5.445,5.444 z m 37.335,-76.509 c -0.003,0.003 -0.007,0.006 -0.01,0.009 -0.003,0.003 -0.006,0.007 -0.009,0.01 l -63.964,63.965 c -0.003,0.003 -0.007,0.006 -0.01,0.009 -0.003,0.003 -0.006,0.007 -0.009,0.01 l -30.135,30.136 -64.748,-64.749 c -3.906,-3.903 -10.237,-3.903 -14.142,0 -3.905,3.905 -3.906,10.237 0,14.143 l 61.375,61.375 -25.904,11.102 -90.63,-90.63 10.878,-26.128 22.083,22.083 c 1.953,1.952 4.512,2.929 7.071,2.929 2.559,0 5.119,-0.977 7.071,-2.929 3.905,-3.905 3.906,-10.237 0,-14.143 l -25.574,-25.574 42.542,-42.543 c 0.002,-0.002 0.005,-0.004 0.007,-0.006 l 39.174,-39.174 c 0.003,-0.003 0.005,-0.006 0.008,-0.009 l 42.541,-42.54 112.521,112.52 z m 40.905,-47.651 -105.658,-105.657 26.129,-10.878 90.63,90.631 z"
   id="path1056"
   style="fill:#000000;fill-opacity:1;stroke-width:12.9318;stroke-miterlimit:4;stroke-dasharray:none" />
	<path
   d="m 377.535,302.463 c 2.794,0 5.421,-1.088 7.379,-3.046 1.984,-1.974 3.079,-4.603 3.083,-7.401 0.004,-2.8 -1.085,-5.432 -3.065,-7.412 -1.976,-1.977 -4.603,-3.064 -7.396,-3.064 -2.795,0 -5.422,1.088 -7.418,3.084 -4.057,4.079 -4.048,10.707 0.021,14.775 1.974,1.976 4.601,3.064 7.396,3.064 z"
   id="path1058"
   style="fill:#000000;fill-opacity:1;stroke-width:12.9318;stroke-miterlimit:4;stroke-dasharray:none" />
	<path
   d="m 331.831,295.934 c 2.794,0 5.421,-1.088 7.397,-3.064 4.078,-4.078 4.078,-10.716 -0.001,-14.795 -1.976,-1.976 -4.603,-3.063 -7.396,-3.063 -2.793,0 -5.421,1.088 -7.397,3.064 -4.078,4.078 -4.078,10.716 10e-4,14.795 1.976,1.975 4.603,3.063 7.396,3.063 z"
   id="path1060"
   style="fill:#000000;fill-opacity:1;stroke-width:12.9318;stroke-miterlimit:4;stroke-dasharray:none" />
</g>
</svg>
