<?xml version="1.0" encoding="UTF-8" standalone="no"?>
<!DOCTYPE svg PUBLIC "-//W3C//DTD SVG 1.1//EN"
 "http://www.w3.org/Graphics/SVG/1.1/DTD/svg11.dtd">
<!-- Generated by graphviz version 12.0.0 (20240803.0821)
 -->
<!-- Title: G Pages: 1 -->
<svg width="384pt" height="548pt"
 viewBox="0.00 0.00 384.36 548.00" xmlns="http://www.w3.org/2000/svg" xmlns:xlink="http://www.w3.org/1999/xlink">
<g id="graph0" class="graph" transform="scale(1 1) rotate(0) translate(4 544)">
<title>G</title><style>.edge>path:hover{stroke-width:8}</style>
<polygon fill="white" stroke="none" points="-4,4 -4,-544 380.36,-544 380.36,4 -4,4"/>
<!-- thuner -->
<g id="node1" class="node">
<title>thuner</title><style>.edge>path:hover{stroke-width:8}</style>
<polygon fill="blue" stroke="black" points="151.75,-540 97.75,-540 97.75,-504 151.75,-504 151.75,-540"/>
<text text-anchor="middle" x="124.75" y="-518.88" font-family="Helvetica,sans-Serif" font-size="10.00" fill="white">thuner</text>
</g>
<!-- thuner_attribute -->
<g id="node2" class="node">
<title>thuner_attribute</title><style>.edge>path:hover{stroke-width:8}</style>
<polygon fill="blue" stroke="black" points="205.75,-324 147.75,-324 147.75,-288 205.75,-288 205.75,-324"/>
<text text-anchor="middle" x="176.75" y="-309.25" font-family="Helvetica,sans-Serif" font-size="10.00" fill="white">thuner.</text>
<text text-anchor="middle" x="176.75" y="-296.5" font-family="Helvetica,sans-Serif" font-size="10.00" fill="white">attribute</text>
</g>
<!-- thuner_parallel -->
<g id="node9" class="node">
<title>thuner_parallel</title><style>.edge>path:hover{stroke-width:8}</style>
<polygon fill="blue" stroke="black" points="151.75,-468 97.75,-468 97.75,-432 151.75,-432 151.75,-468"/>
<text text-anchor="middle" x="124.75" y="-453.25" font-family="Helvetica,sans-Serif" font-size="10.00" fill="white">thuner.</text>
<text text-anchor="middle" x="124.75" y="-440.5" font-family="Helvetica,sans-Serif" font-size="10.00" fill="white">parallel</text>
</g>
<!-- thuner_attribute&#45;&gt;thuner_parallel -->
<g id="edge1" class="edge">
<title>thuner_attribute&#45;&gt;thuner_parallel</title><style>.edge>path:hover{stroke-width:8}</style>
<path fill="none" stroke="black" d="M151.38,-324.4C136.26,-336.99 119.95,-355.53 119.75,-377"/>
</g>
<!-- thuner_track -->
<g id="node10" class="node">
<title>thuner_track</title><style>.edge>path:hover{stroke-width:8}</style>
<polygon fill="blue" stroke="black" points="222,-396 147.5,-396 147.5,-360 222,-360 222,-396"/>
<text text-anchor="middle" x="184.75" y="-374.88" font-family="Helvetica,sans-Serif" font-size="10.00" fill="white">thuner.track</text>
</g>
<!-- thuner_attribute&#45;&gt;thuner_track -->
<g id="edge2" class="edge">
<title>thuner_attribute&#45;&gt;thuner_track</title><style>.edge>path:hover{stroke-width:8}</style>
<path fill="none" stroke="black" d="M180,-335.47C180.51,-339.87 181.03,-344.42 181.53,-348.81"/>
<polygon fill="blue" stroke="black" points="183.51,-335.35 178.9,-325.81 176.56,-336.14 183.51,-335.35"/>
<polygon fill="blue" stroke="black" points="178.01,-348.85 182.62,-358.39 184.97,-348.06 178.01,-348.85"/>
</g>
<!-- thuner_data -->
<g id="node3" class="node">
<title>thuner_data</title><style>.edge>path:hover{stroke-width:8}</style>
<polygon fill="blue" stroke="black" points="71.5,-180 0,-180 0,-144 71.5,-144 71.5,-180"/>
<text text-anchor="middle" x="35.75" y="-158.88" font-family="Helvetica,sans-Serif" font-size="10.00" fill="white">thuner.data</text>
</g>
<!-- thuner_data&#45;&gt;thuner -->
<g id="edge3" class="edge">
<title>thuner_data&#45;&gt;thuner</title><style>.edge>path:hover{stroke-width:8}</style>
<path fill="none" stroke="black" d="M28.93,-180.45C24.22,-194.55 19.23,-214.96 21.75,-233"/>
<path fill="none" stroke="black" d="M21.75,-235C26.25,-267.3 46.44,-272.5 43.75,-305"/>
<path fill="none" stroke="black" d="M43.75,-307C37.62,-381.04 57.47,-400.61 88.75,-468 92.95,-477.04 98.61,-486.24 104.21,-494.38"/>
<polygon fill="blue" stroke="black" points="101.34,-496.39 110.01,-502.48 107.03,-492.32 101.34,-496.39"/>
</g>
<!-- thuner_option -->
<g id="node8" class="node">
<title>thuner_option</title><style>.edge>path:hover{stroke-width:8}</style>
<polygon fill="blue" stroke="black" points="130,-252 49.5,-252 49.5,-216 130,-216 130,-252"/>
<text text-anchor="middle" x="89.75" y="-230.88" font-family="Helvetica,sans-Serif" font-size="10.00" fill="white">thuner.option</text>
</g>
<!-- thuner_data&#45;&gt;thuner_option -->
<g id="edge4" class="edge">
<title>thuner_data&#45;&gt;thuner_option</title><style>.edge>path:hover{stroke-width:8}</style>
<path fill="none" stroke="black" d="M55.96,-189.2C60.48,-195.06 65.27,-201.27 69.78,-207.11"/>
<polygon fill="blue" stroke="black" points="58.9,-187.28 50.02,-181.5 53.36,-191.56 58.9,-187.28"/>
<polygon fill="blue" stroke="black" points="66.75,-208.92 75.63,-214.7 72.29,-204.64 66.75,-208.92"/>
</g>
<!-- thuner_data&#45;&gt;thuner_parallel -->
<g id="edge5" class="edge">
<title>thuner_data&#45;&gt;thuner_parallel</title><style>.edge>path:hover{stroke-width:8}</style>
<path fill="none" stroke="black" d="M21.75,-235C24.86,-253.92 119.93,-357.83 119.75,-377"/>
<path fill="none" stroke="black" d="M119.75,-379C119.91,-392.66 120.89,-407.79 121.94,-420.48"/>
<polygon fill="blue" stroke="black" points="118.44,-420.61 122.81,-430.26 125.41,-419.99 118.44,-420.61"/>
</g>
<!-- thuner_data&#45;&gt;thuner_track -->
<g id="edge6" class="edge">
<title>thuner_data&#45;&gt;thuner_track</title><style>.edge>path:hover{stroke-width:8}</style>
<path fill="none" stroke="black" d="M71.83,-170.81C135.42,-186.67 258.49,-227.86 233.75,-305"/>
<path fill="none" stroke="black" d="M233.75,-307C226.76,-322.52 216.19,-338.19 206.65,-350.76"/>
<polygon fill="blue" stroke="black" points="203.98,-348.49 200.57,-358.52 209.5,-352.81 203.98,-348.49"/>
</g>
<!-- thuner_detect -->
<g id="node4" class="node">
<title>thuner_detect</title><style>.edge>path:hover{stroke-width:8}</style>
<polygon fill="blue" stroke="black" points="342,-252 261.5,-252 261.5,-216 342,-216 342,-252"/>
<text text-anchor="middle" x="301.75" y="-230.88" font-family="Helvetica,sans-Serif" font-size="10.00" fill="white">thuner.detect</text>
</g>
<!-- thuner_detect&#45;&gt;thuner_track -->
<g id="edge7" class="edge">
<title>thuner_detect&#45;&gt;thuner_track</title><style>.edge>path:hover{stroke-width:8}</style>
<path fill="none" stroke="black" d="M274.78,-252.4C258.64,-264.76 240.08,-283.02 233.75,-305"/>
</g>
<!-- thuner_grid -->
<g id="node5" class="node">
<title>thuner_grid</title><style>.edge>path:hover{stroke-width:8}</style>
<polygon fill="blue" stroke="black" points="196,-108 127.5,-108 127.5,-72 196,-72 196,-108"/>
<text text-anchor="middle" x="161.75" y="-86.88" font-family="Helvetica,sans-Serif" font-size="10.00" fill="white">thuner.grid</text>
</g>
<!-- thuner_grid&#45;&gt;thuner_attribute -->
<g id="edge8" class="edge">
<title>thuner_grid&#45;&gt;thuner_attribute</title><style>.edge>path:hover{stroke-width:8}</style>
<path fill="none" stroke="black" d="M189.95,-108.45C206.14,-120.82 223.36,-139.09 223.75,-161"/>
<path fill="none" stroke="black" d="M223.75,-163C224.49,-204.49 206,-249.51 191.99,-277.49"/>
<polygon fill="blue" stroke="black" points="188.9,-275.85 187.4,-286.33 195.11,-279.07 188.9,-275.85"/>
</g>
<!-- thuner_grid&#45;&gt;thuner_data -->
<g id="edge9" class="edge">
<title>thuner_grid&#45;&gt;thuner_data</title><style>.edge>path:hover{stroke-width:8}</style>
<path fill="none" stroke="black" d="M130.28,-108.48C114.07,-117.49 94.11,-128.58 76.72,-138.24"/>
<polygon fill="blue" stroke="black" points="75.18,-135.09 68.14,-143 78.58,-141.21 75.18,-135.09"/>
</g>
<!-- thuner_match -->
<g id="node7" class="node">
<title>thuner_match</title><style>.edge>path:hover{stroke-width:8}</style>
<polygon fill="blue" stroke="black" points="332,-180 251.5,-180 251.5,-144 332,-144 332,-180"/>
<text text-anchor="middle" x="291.75" y="-158.88" font-family="Helvetica,sans-Serif" font-size="10.00" fill="white">thuner.match</text>
</g>
<!-- thuner_grid&#45;&gt;thuner_match -->
<g id="edge10" class="edge">
<title>thuner_grid&#45;&gt;thuner_match</title><style>.edge>path:hover{stroke-width:8}</style>
<path fill="none" stroke="black" d="M194.22,-108.48C211.02,-117.53 231.73,-128.68 249.73,-138.38"/>
<polygon fill="blue" stroke="black" points="247.9,-141.36 258.36,-143.02 251.22,-135.2 247.9,-141.36"/>
</g>
<!-- thuner_group -->
<g id="node6" class="node">
<title>thuner_group</title><style>.edge>path:hover{stroke-width:8}</style>
<polygon fill="blue" stroke="black" points="340.5,-324 263,-324 263,-288 340.5,-288 340.5,-324"/>
<text text-anchor="middle" x="301.75" y="-302.88" font-family="Helvetica,sans-Serif" font-size="10.00" fill="white">thuner.group</text>
</g>
<!-- thuner_group&#45;&gt;thuner_track -->
<g id="edge11" class="edge">
<title>thuner_group&#45;&gt;thuner_track</title><style>.edge>path:hover{stroke-width:8}</style>
<path fill="none" stroke="black" d="M272.53,-324.48C257.62,-333.4 239.29,-344.37 223.24,-353.97"/>
<polygon fill="blue" stroke="black" points="221.68,-350.82 214.9,-358.96 225.28,-356.83 221.68,-350.82"/>
</g>
<!-- thuner_match&#45;&gt;thuner_track -->
<g id="edge12" class="edge">
<title>thuner_match&#45;&gt;thuner_track</title><style>.edge>path:hover{stroke-width:8}</style>
<path fill="none" stroke="black" d="M275.97,-180.44C267.89,-190.24 258.56,-203.08 252.75,-216 236.17,-252.89 244.94,-266.13 233.75,-305"/>
</g>
<!-- thuner_option&#45;&gt;thuner -->
<g id="edge13" class="edge">
<title>thuner_option&#45;&gt;thuner</title><style>.edge>path:hover{stroke-width:8}</style>
<path fill="none" stroke="black" d="M71.27,-252.32C59.22,-265.41 45.44,-284.57 43.75,-305"/>
</g>
<!-- thuner_option&#45;&gt;thuner_attribute -->
<g id="edge14" class="edge">
<title>thuner_option&#45;&gt;thuner_attribute</title><style>.edge>path:hover{stroke-width:8}</style>
<path fill="none" stroke="black" d="M111.26,-252.3C121.82,-260.8 134.73,-271.19 146.28,-280.49"/>
<polygon fill="blue" stroke="black" points="144.03,-283.16 154.01,-286.7 148.41,-277.71 144.03,-283.16"/>
</g>
<!-- thuner_option&#45;&gt;thuner_parallel -->
<g id="edge16" class="edge">
<title>thuner_option&#45;&gt;thuner_parallel</title><style>.edge>path:hover{stroke-width:8}</style>
<path fill="none" stroke="black" d="M97.1,-252.28C103.15,-266.46 111.96,-287.05 119.75,-305"/>
<path fill="none" stroke="black" d="M119.75,-307C132.13,-335.54 120.04,-345.89 119.75,-377"/>
</g>
<!-- thuner_option&#45;&gt;thuner_track -->
<g id="edge17" class="edge">
<title>thuner_option&#45;&gt;thuner_track</title><style>.edge>path:hover{stroke-width:8}</style>
<path fill="none" stroke="black" d="M119.75,-307C127.28,-324.35 140.99,-340.13 153.89,-352.3"/>
<polygon fill="blue" stroke="black" points="151.28,-354.65 161.05,-358.74 155.96,-349.45 151.28,-354.65"/>
</g>
<!-- thuner_parallel&#45;&gt;thuner -->
<g id="edge18" class="edge">
<title>thuner_parallel&#45;&gt;thuner</title><style>.edge>path:hover{stroke-width:8}</style>
<path fill="none" stroke="black" d="M124.75,-468.3C124.75,-475.59 124.75,-484.27 124.75,-492.46"/>
<polygon fill="blue" stroke="black" points="121.25,-492.38 124.75,-502.38 128.25,-492.38 121.25,-492.38"/>
</g>
<!-- thuner_track&#45;&gt;thuner -->
<g id="edge19" class="edge">
<title>thuner_track&#45;&gt;thuner</title><style>.edge>path:hover{stroke-width:8}</style>
<path fill="none" stroke="black" d="M181.85,-396.32C178.38,-414.69 171.62,-444.29 160.75,-468 156.6,-477.06 150.94,-486.26 145.34,-494.41"/>
<polygon fill="blue" stroke="black" points="142.52,-492.34 139.53,-502.5 148.21,-496.42 142.52,-492.34"/>
</g>
<!-- thuner_track&#45;&gt;thuner_parallel -->
<g id="edge21" class="edge">
<title>thuner_track&#45;&gt;thuner_parallel</title><style>.edge>path:hover{stroke-width:8}</style>
<path fill="none" stroke="black" d="M169.92,-396.3C162.94,-404.44 154.48,-414.31 146.78,-423.3"/>
<polygon fill="blue" stroke="black" points="144.25,-420.88 140.4,-430.75 149.56,-425.43 144.25,-420.88"/>
</g>
<!-- thuner_utils -->
<g id="node11" class="node">
<title>thuner_utils</title><style>.edge>path:hover{stroke-width:8}</style>
<ellipse fill="#f91010" stroke="black" cx="161.75" cy="-18" rx="43.29" ry="18"/>
<text text-anchor="middle" x="161.75" y="-14.88" font-family="Helvetica,sans-Serif" font-size="10.00" fill="#ffffff">thuner.utils</text>
</g>
<!-- thuner_utils&#45;&gt;thuner_attribute -->
<g id="edge22" class="edge">
<title>thuner_utils&#45;&gt;thuner_attribute</title><style>.edge>path:hover{stroke-width:8}</style>
<path fill="none" stroke="black" d="M175.79,-35.35C188.2,-49.67 206.9,-70.97 223.75,-89"/>
<path fill="none" stroke="black" d="M223.75,-91C244.99,-113.73 220.42,-130.07 223.75,-161"/>
</g>
<!-- thuner_utils&#45;&gt;thuner_data -->
<g id="edge23" class="edge">
<title>thuner_utils&#45;&gt;thuner_data</title><style>.edge>path:hover{stroke-width:8}</style>
<path fill="none" stroke="black" d="M144.82,-35.03C131.32,-48.48 112.61,-68.7 99.75,-89"/>
<path fill="none" stroke="black" d="M99.75,-91C89.41,-107.32 75.11,-123.38 62.65,-135.99"/>
<polygon fill="#f91010" stroke="black" points="60.52,-133.17 55.86,-142.69 65.44,-138.16 60.52,-133.17"/>
</g>
<!-- thuner_utils&#45;&gt;thuner_detect -->
<g id="edge24" class="edge">
<title>thuner_utils&#45;&gt;thuner_detect</title><style>.edge>path:hover{stroke-width:8}</style>
<path fill="none" stroke="black" d="M223.75,-91C272.89,-143.57 346.04,-93.06 369.75,-161"/>
<path fill="none" stroke="black" d="M369.75,-163C376.16,-181.36 363.16,-197.32 346.86,-209.35"/>
<polygon fill="#f91010" stroke="black" points="345.16,-206.28 338.83,-214.77 349.07,-212.08 345.16,-206.28"/>
</g>
<!-- thuner_utils&#45;&gt;thuner_grid -->
<g id="edge25" class="edge">
<title>thuner_utils&#45;&gt;thuner_grid</title><style>.edge>path:hover{stroke-width:8}</style>
<path fill="none" stroke="black" d="M161.75,-36.3C161.75,-43.59 161.75,-52.27 161.75,-60.46"/>
<polygon fill="#f91010" stroke="black" points="158.25,-60.38 161.75,-70.38 165.25,-60.38 158.25,-60.38"/>
</g>
<!-- thuner_utils&#45;&gt;thuner_group -->
<g id="edge26" class="edge">
<title>thuner_utils&#45;&gt;thuner_group</title><style>.edge>path:hover{stroke-width:8}</style>
<path fill="none" stroke="black" d="M369.75,-163C380,-192.37 376.56,-202.64 369.75,-233"/>
<path fill="none" stroke="black" d="M369.75,-235C365.67,-253.17 352.56,-268.65 338.92,-280.39"/>
<polygon fill="#f91010" stroke="black" points="336.77,-277.62 331.16,-286.61 341.15,-283.09 336.77,-277.62"/>
</g>
<!-- thuner_utils&#45;&gt;thuner_option -->
<g id="edge27" class="edge">
<title>thuner_utils&#45;&gt;thuner_option</title><style>.edge>path:hover{stroke-width:8}</style>
<path fill="none" stroke="black" d="M99.75,-91C78.04,-125.28 80.06,-174.01 84.31,-204.54"/>
<polygon fill="#f91010" stroke="black" points="80.81,-204.84 85.83,-214.17 87.73,-203.75 80.81,-204.84"/>
</g>
<!-- thuner_utils&#45;&gt;thuner_track -->
<g id="edge28" class="edge">
<title>thuner_utils&#45;&gt;thuner_track</title><style>.edge>path:hover{stroke-width:8}</style>
<path fill="none" stroke="black" d="M369.75,-235C360.88,-274.56 377.1,-294.08 349.75,-324 320.04,-356.5 270.37,-369.16 233.27,-374.05"/>
<polygon fill="#f91010" stroke="black" points="233.24,-370.53 223.7,-375.15 234.04,-377.48 233.24,-370.53"/>
</g>
</g>
</svg>
